# xmcd
#
# Track frame offsets: 
#        150
#        11285
#        23130
#        35290
#        52821
#        68673
#        85958
#        95040
#        113573
#        126386
#        142466
#        154139
#        176438
#        188800
#        197777
#        213565
#        227687
#        232844
#        246710
#        254966
#
# Disc length: 3614 seconds
#
# Revision: 0
# Processed by: cddbd v1.5.2PL0 Copyright (c) Steve Scherf et al.
# Submitted via: ExactAudioCopy v1.3
#
DISCID=1e0e1c14
DTITLE=Various Artist - Solitaire 20 All Time Favourites
DYEAR=2000
DGENRE=Pop
TTITLE0=Al Martino - Strangers In The Night
TTITLE1=Roger Miller - Walking In The Sunshine
TTITLE2=Guy Mitchell - My Heart Cries For You
TTITLE3=Shirley Bassey - Send In The Clowns
TTITLE4=Englebert Humperdink - Harbour Lights 
TTITLE5=Mario Lanza - Granada
TTITLE6=The Bellamy Brothers - Let Your Love Flow
TTITLE7=Melanie - What Have They Done To My Song Ma
TTITLE8=Frankie Laine - High Noon (Do not forsake me)
TTITLE9=Harry Secombe - How Great Thou Art
TTITLE10=Patsy Cline - Walking After Midnight
TTITLE11=Neil Sedaka - Solitaire
TTITLE12=Charlie Rich - Behind Closed Doors
TTITLE13=Frank Sinatra - I've Got You Under My Skin
TTITLE14=Anne Murray - There Goes My Everything
TTITLE15=Al Martino - Volare
TTITLE16=Marty Robbins - A White Sport Coat
TTITLE17=Englebert Humperdink - Red Sails In The Sunset
TTITLE18=Nat King Cole - Im In The Mood For Love
TTITLE19=Willie Nelson - Georgia On My Mind
EXTD=
EXTT0=
EXTT1=
EXTT2=
EXTT3=
EXTT4=
EXTT5=
EXTT6=
EXTT7=
EXTT8=
EXTT9=
EXTT10=
EXTT11=
EXTT12=
EXTT13=
EXTT14=
EXTT15=
EXTT16=
EXTT17=
EXTT18=
EXTT19=
PLAYORDER=
